<svg id="Layer_1" data-name="Layer 1" xmlns="http://www.w3.org/2000/svg" viewBox="0 0 217 40">
  <defs>
    <style>
      .cls-1 {
        fill: #81bcaa;
      }
    </style>
  </defs>
  <title>assets</title>
  <polygon class="cls-1" points="17.425 8.281 20.741 15 28.156 16.077 22.791 21.307 24.057 28.692 17.425 25.206 10.793 28.692 12.06 21.307 6.694 16.077 14.109 15 17.425 8.281"/>
  <polygon class="cls-1" points="62.263 8.281 65.579 15 72.994 16.077 67.629 21.307 68.895 28.692 62.263 25.206 55.631 28.692 56.898 21.307 51.532 16.077 58.947 15 62.263 8.281"/>
  <polygon class="cls-1" points="107.102 8.281 110.418 15 117.833 16.077 112.467 21.307 113.734 28.692 107.102 25.206 100.47 28.692 101.736 21.307 96.371 16.077 103.786 15 107.102 8.281"/>
  <polygon class="cls-1" points="151.94 8.281 155.256 15 162.671 16.077 157.305 21.307 158.572 28.692 151.94 25.206 145.308 28.692 146.574 21.307 141.209 16.077 148.624 15 151.94 8.281"/>
  <polygon class="cls-1" points="196.778 8.281 200.094 15 207.509 16.077 202.144 21.307 203.41 28.692 196.778 25.206 190.146 28.692 191.413 21.307 186.047 16.077 193.462 15 196.778 8.281"/>
</svg>
